<svg width="56" height="40" viewBox="0 0 56 40" fill="none" xmlns="http://www.w3.org/2000/svg">
<path d="M5.16789 29.6708H36.1572C39.0115 29.6708 41.3251 32.5216 41.3251 34.8324V34.8385C41.3251 37.6892 39.0115 40 36.1572 40H5.16789C2.31361 40 0 37.1492 0 34.8385V34.8324C0 31.9816 2.31361 29.6708 5.16789 29.6708Z" fill="#FD254C"/>
<path d="M51.0054 0.00312278H20.0228C18.62 -0.0455794 17.2577 0.477098 16.2485 1.45072C15.2389 2.42476 14.669 3.76627 14.669 5.16778C14.669 6.56974 15.2389 7.91125 16.2485 8.88529C17.2577 9.8589 18.62 10.3815 20.0228 10.3329H51.0054C52.81 10.2703 54.4514 9.27232 55.3365 7.69996C56.2212 6.12758 56.2212 4.20865 55.3365 2.63627C54.4514 1.06388 52.81 0.0659067 51.0054 0.00334529V0.00312278Z" fill="#FD254C"/>
<path d="M43.578 14.8398H12.5953C10.749 14.8398 9.04312 15.8234 8.1197 17.4206C7.19671 19.0178 7.19671 20.985 8.1197 22.5821C9.04314 24.1793 10.749 25.163 12.5953 25.163H43.578C45.4243 25.163 47.1302 24.1794 48.0536 22.5821C48.9766 20.9849 48.9766 19.0177 48.0536 17.4206C47.1302 15.8234 45.4243 14.8398 43.578 14.8398Z" fill="#FD254C"/>
</svg>
