<svg width="236" height="34" viewBox="0 0 236 34" fill="none" xmlns="http://www.w3.org/2000/svg">
<g clip-path="url(#clip0_287_718)">
<path d="M141.687 5.0047C142.16 2.67452 144.209 1 146.586 1H230.382C233.544 1 235.912 3.89721 235.282 6.9953L230.813 28.9953C230.34 31.3255 228.291 33 225.914 33H142.118C138.956 33 136.588 30.1028 137.218 27.0047L141.687 5.0047Z" fill="#215BF1"/>
<path d="M10.4828 10.59L9.79281 14.13H19.1228L18.2528 18.57H8.89281L8.14281 22.41H19.1528L18.1928 27H1.36281L5.56281 6H22.0028L21.0728 10.59H10.4828ZM54.1961 6L41.0261 27H35.1761L30.4061 6H36.4961L39.4961 19.65L48.0761 6H54.1961ZM67.8754 10.59L67.1854 14.13H76.5154L75.6454 18.57H66.2854L65.5354 22.41H76.5454L75.5854 27H58.7554L62.9554 6H79.3954L78.4654 10.59H67.8754ZM108.042 12.69C108.042 14.61 107.532 16.27 106.512 17.67C105.492 19.05 104.062 20.06 102.222 20.7L105.792 27H99.5816L96.4616 21.42H93.4616L92.3516 27H86.4116L90.6116 6H99.5816C102.262 6 104.342 6.59 105.822 7.77C107.302 8.95 108.042 10.59 108.042 12.69ZM102.042 13.26C102.042 12.4 101.752 11.76 101.172 11.34C100.592 10.9 99.7816 10.68 98.7416 10.68H95.6216L94.3616 16.83H97.9016C99.2216 16.83 100.242 16.52 100.962 15.9C101.682 15.28 102.042 14.4 102.042 13.26ZM128.546 19.56L127.076 27H121.136L122.636 19.41L117.296 6H123.266L126.566 14.37L133.286 6H139.316L128.546 19.56ZM148.239 6H157.359C159.519 6 161.389 6.36 162.969 7.08C164.549 7.78 165.759 8.8 166.599 10.14C167.459 11.46 167.889 13.02 167.889 14.82C167.889 17.26 167.329 19.4 166.209 21.24C165.109 23.08 163.569 24.5 161.589 25.5C159.609 26.5 157.339 27 154.779 27H144.039L148.239 6ZM154.959 22.26C156.399 22.26 157.639 21.96 158.679 21.36C159.739 20.74 160.539 19.9 161.079 18.84C161.619 17.76 161.889 16.54 161.889 15.18C161.889 13.76 161.449 12.67 160.569 11.91C159.689 11.13 158.399 10.74 156.699 10.74H153.219L150.939 22.26H154.959ZM191.151 22.92H182.211L179.781 27H173.511L186.981 6H192.831L197.901 27H191.991L191.151 22.92ZM190.251 18.54L188.841 11.73L184.821 18.54H190.251ZM218.516 19.56L217.046 27H211.106L212.606 19.41L207.266 6H213.236L216.536 14.37L223.256 6H229.286L218.516 19.56Z" fill="white"/>
</g>
<defs>
<clipPath id="clip0_287_718">
<rect width="236" height="34" fill="white"/>
</clipPath>
</defs>
</svg>
