<svg width="51" height="51" viewBox="0 0 51 51" fill="none" xmlns="http://www.w3.org/2000/svg">
<path fill-rule="evenodd" clip-rule="evenodd" d="M17.5315 0C22.3726 0 26.754 1.96363 29.9266 5.13613C33.099 8.30867 35.0627 12.6901 35.0627 17.5312C35.0596 19.8123 34.6112 22.0711 33.7429 24.1804L51 41.4375V51H44.625L35.0625 41.4375H31.875L24.1804 33.7429C22.071 34.6112 19.8126 35.0595 17.5312 35.0627C12.6901 35.0627 8.30875 33.0991 5.13612 29.9266C1.96371 26.754 0 22.3726 0 17.5315C0 12.6903 1.96363 8.30896 5.13612 5.13634C8.30866 1.96393 12.6901 0.0002125 17.5312 0.0002125L17.5315 0ZM14.344 9.5625C11.7033 9.5625 9.56271 11.7033 9.56271 14.3438C9.56271 16.9842 11.7033 19.125 14.344 19.125C16.9846 19.125 19.1252 16.9842 19.1252 14.3438C19.1252 11.7033 16.9846 9.5625 14.344 9.5625Z" fill="#3C8265"/>
</svg>
