<svg width="147" height="67" viewBox="0 0 147 67" fill="none" xmlns="http://www.w3.org/2000/svg">
<g clip-path="url(#clip0_287_717)" filter="url(#filter0_d_287_717)">
<path d="M28.6865 31.0047C29.1599 28.6745 31.2087 27 33.5865 27H117.382C120.544 27 122.912 29.8972 122.282 32.9953L117.813 54.9953C117.34 57.3255 115.291 59 112.914 59H29.1177C25.9564 59 23.5885 56.1028 24.2178 53.0047L28.6865 31.0047Z" fill="#215BF1"/>
<path d="M13.9682 5.59L13.2782 9.13H22.6082L21.7382 13.57H12.3782L11.6282 17.41H22.6382L21.6782 22H4.84816L9.04816 0.999999H25.4882L24.5582 5.59H13.9682ZM57.6814 0.999999L44.5114 22H38.6614L33.8914 0.999999H39.9814L42.9814 14.65L51.5614 0.999999H57.6814ZM71.3607 5.59L70.6707 9.13H80.0007L79.1307 13.57H69.7707L69.0207 17.41H80.0307L79.0707 22H62.2407L66.4407 0.999999H82.8807L81.9507 5.59H71.3607ZM111.527 7.69C111.527 9.61 111.017 11.27 109.997 12.67C108.977 14.05 107.547 15.06 105.707 15.7L109.277 22H103.067L99.947 16.42H96.947L95.837 22H89.897L94.097 0.999999H103.067C105.747 0.999999 107.827 1.59 109.307 2.77C110.787 3.95 111.527 5.59 111.527 7.69ZM105.527 8.26C105.527 7.4 105.237 6.76 104.657 6.34C104.077 5.9 103.267 5.68 102.227 5.68H99.107L97.847 11.83H101.387C102.707 11.83 103.727 11.52 104.447 10.9C105.167 10.28 105.527 9.4 105.527 8.26ZM132.031 14.56L130.561 22H124.621L126.121 14.41L120.781 0.999999H126.751L130.051 9.37L136.771 0.999999H142.801L132.031 14.56ZM35.4007 33H44.5207C46.6807 33 48.5507 33.36 50.1307 34.08C51.7107 34.78 52.9207 35.8 53.7607 37.14C54.6207 38.46 55.0507 40.02 55.0507 41.82C55.0507 44.26 54.4907 46.4 53.3707 48.24C52.2707 50.08 50.7307 51.5 48.7507 52.5C46.7707 53.5 44.5007 54 41.9407 54H31.2007L35.4007 33ZM42.1207 49.26C43.5607 49.26 44.8007 48.96 45.8407 48.36C46.9007 47.74 47.7007 46.9 48.2407 45.84C48.7807 44.76 49.0507 43.54 49.0507 42.18C49.0507 40.76 48.6107 39.67 47.7307 38.91C46.8507 38.13 45.5607 37.74 43.8607 37.74H40.3807L38.1007 49.26H42.1207ZM78.3129 49.92H69.3729L66.9429 54H60.6729L74.1429 33H79.9929L85.0629 54H79.1529L78.3129 49.92ZM77.4129 45.54L76.0029 38.73L71.9829 45.54H77.4129ZM105.679 46.56L104.209 54H98.2685L99.7685 46.41L94.4285 33H100.399L103.699 41.37L110.419 33H116.449L105.679 46.56Z" fill="white"/>
</g>
<defs>
<filter id="filter0_d_287_717" x="0" y="0" width="148" height="68" filterUnits="userSpaceOnUse" color-interpolation-filters="sRGB">
<feFlood flood-opacity="0" result="BackgroundImageFix"/>
<feColorMatrix in="SourceAlpha" type="matrix" values="0 0 0 0 0 0 0 0 0 0 0 0 0 0 0 0 0 0 127 0" result="hardAlpha"/>
<feOffset dy="4"/>
<feGaussianBlur stdDeviation="2"/>
<feComposite in2="hardAlpha" operator="out"/>
<feColorMatrix type="matrix" values="0 0 0 0 0 0 0 0 0 0 0 0 0 0 0 0 0 0 0.25 0"/>
<feBlend mode="normal" in2="BackgroundImageFix" result="effect1_dropShadow_287_717"/>
<feBlend mode="normal" in="SourceGraphic" in2="effect1_dropShadow_287_717" result="shape"/>
</filter>
<clipPath id="clip0_287_717">
<rect width="140" height="60" fill="white" transform="translate(4)"/>
</clipPath>
</defs>
</svg>
