<svg width="47" height="51" viewBox="0 0 47 51" fill="none" xmlns="http://www.w3.org/2000/svg">
<path d="M45.756 7.08309L24.8345 0.218556C23.969 -0.0728519 23.031 -0.0728519 22.1473 0.218556L1.24437 7.08309C0.504816 7.33791 0 8.08452 0 8.86766C0 24.1809 6.16844 38.6004 16.9351 48.4326C18.8107 50.144 21.1553 51 23.5 51C25.8447 51 28.1893 50.1441 30.0649 48.4326C40.8328 38.6004 47 24.1799 47 8.86766V8.81279C47 8.03002 46.4952 7.33786 45.7556 7.08305L45.756 7.08309ZM25.6281 38.7282C26.6201 38.7282 27.4317 39.5475 27.4317 40.549C27.4317 41.5687 26.6201 42.3697 25.6281 42.3697H21.3716C20.3796 42.3697 19.568 41.5687 19.568 40.549C19.568 39.5475 20.3796 38.7282 21.3716 38.7282H21.6965V34.3583H17.5301C16.5381 34.3583 15.7265 33.539 15.7265 32.5375C15.7265 31.5361 16.5381 30.7168 17.5301 30.7168H18.7024V13.4371C18.7024 12.9636 18.9009 12.4901 19.2435 12.1625L22.2194 9.13994C22.9046 8.46609 24.095 8.46609 24.7807 9.13994L27.7566 12.1625C28.0992 12.4901 28.2976 12.9636 28.2976 13.4371V30.7157H29.47C30.4619 30.7157 31.2736 31.5351 31.2736 32.5365C31.2736 33.5379 30.4619 34.3573 29.47 34.3573L25.3036 34.3577V38.7275L25.6281 38.7282Z" fill="#E37B4F"/>
</svg>
