<svg width="50" height="50" viewBox="0 0 50 50" fill="none" xmlns="http://www.w3.org/2000/svg">
<path fill-rule="evenodd" clip-rule="evenodd" d="M24.9317 39.071C32.7406 39.071 39.071 32.7406 39.071 24.9317C39.071 17.1228 32.7406 10.7923 24.9317 10.7923C17.1227 10.7923 10.7923 17.1228 10.7923 24.9317C10.7923 32.7406 17.1227 39.071 24.9317 39.071ZM18.1011 18.3743C17.623 18.3743 17.2131 18.8525 17.4863 19.6721L21.2432 31.7623C21.3115 32.0128 21.612 32.5137 22.2678 32.5137H27.3224C27.5729 32.5364 28.1284 32.418 28.347 31.7623C28.5656 31.1066 31.2614 22.5638 32.582 18.3743C32.6958 18.0328 32.7459 17.3497 32.0355 17.3497H28.8251C28.5974 17.327 28.1011 17.4044 27.9372 17.8962C27.7732 18.388 25.7741 24.6129 24.7951 27.6639L22.2678 19.6721C22.1767 19.2395 21.8443 18.3743 21.2432 18.3743H18.1011Z" fill="#5987E2"/>
<path fill-rule="evenodd" clip-rule="evenodd" d="M50 25C50 38.8071 38.8071 50 25 50C11.1929 50 0 38.8071 0 25C0 11.1929 11.1929 0 25 0C38.8071 0 50 11.1929 50 25ZM8.66442 25C8.66442 34.0219 15.9781 41.3356 25 41.3356C34.0219 41.3356 41.3356 34.0219 41.3356 25C41.3356 15.9781 34.0219 8.66442 25 8.66442C15.9781 8.66442 8.66442 15.9781 8.66442 25ZM24.9317 3.21038C29.959 3.21038 34.1891 4.94383 35.5874 5.94262C36.0656 6.28415 35.929 7.17213 35.5874 7.51366C35.2102 7.8909 34.7985 7.96731 34.3579 7.71858C32.9463 6.92167 29.0847 5.32787 24.9317 5.32787C20.7787 5.32787 17.0082 6.92167 15.6421 7.71858C15.2322 7.9918 14.5803 8.0105 14.2077 7.51366C13.7466 6.89891 13.9344 6.28415 14.4126 5.94262C14.8134 5.65633 18.6475 3.21038 24.9317 3.21038ZM43.8415 35.9097C41.3278 40.2635 37.7116 43.0601 36.1474 43.7717C35.6126 44.015 34.9119 43.4527 34.7869 42.9862C34.6488 42.4709 34.7885 42.0762 35.2242 41.8189C36.6201 40.9949 39.9312 38.4476 42.0077 34.8509C44.0842 31.2543 44.5892 27.1921 44.5821 25.6105C44.5504 25.119 44.8602 24.545 45.4768 24.4708C46.2397 24.3788 46.6782 24.8489 46.7349 25.4337C46.7824 25.924 46.9836 30.4675 43.8415 35.9097ZM14.0081 43.7717C12.444 43.0601 8.82773 40.2635 6.31407 35.9097C3.17199 30.4675 3.37317 25.924 3.4207 25.4337C3.4774 24.8489 3.91587 24.3788 4.6788 24.4708C5.29539 24.545 5.60518 25.119 5.57348 25.6105C5.5664 27.1921 6.07137 31.2543 8.14787 34.8509C10.2244 38.4476 13.5354 40.9949 14.9314 41.8189C15.3671 42.0762 15.5068 42.4709 15.3687 42.9862C15.2437 43.4527 14.543 44.015 14.0081 43.7717Z" fill="#5987E2"/>
</svg>
