<svg width="18" height="16" viewBox="0 0 18 16" fill="none" xmlns="http://www.w3.org/2000/svg">
<path d="M16.6067 6.3337H15.6823L14.4306 2.33833C14.161 1.4546 13.3714 0.828499 12.4471 0.699682C12.2544 0.294622 11.8308 0 11.3301 0H6.66974C6.16907 0 5.7454 0.276125 5.55279 0.699682C4.62845 0.828627 3.85807 1.4546 3.56924 2.33833L2.31755 6.3337H1.39321C0.430318 6.3337 -0.243774 7.23591 0.0837465 8.1013L2.60648 15.0978C2.79912 15.6317 3.33831 16 3.91595 16H14.0841C14.681 16 15.201 15.6318 15.3935 15.0978L17.9163 8.1013C18.2438 7.23581 17.5697 6.3337 16.6068 6.3337H16.6067ZM6.03413 13.4407C6.03413 13.7168 5.80308 13.9378 5.51414 13.9378C5.22532 13.9378 4.99414 13.7169 4.99414 13.4407V8.87453C4.99414 8.5984 5.22519 8.37738 5.51414 8.37738C5.80295 8.37738 6.03413 8.59828 6.03413 8.87453V13.4407ZM9.51979 13.4407C9.51979 13.7168 9.28874 13.9378 8.9998 13.9378C8.71099 13.9378 8.4798 13.7169 8.4798 13.4407V8.87453C8.4798 8.5984 8.71086 8.37738 8.9998 8.37738C9.28861 8.37738 9.51979 8.59828 9.51979 8.87453V13.4407ZM13.0055 13.4407C13.0055 13.7168 12.7744 13.9378 12.4855 13.9378C12.1966 13.9378 11.9655 13.7169 11.9655 13.4407V8.87453C11.9655 8.5984 12.1965 8.37738 12.4855 8.37738C12.7743 8.37738 13.0055 8.59828 13.0055 8.87453V13.4407ZM3.80023 6.22323L4.89799 2.70657C5.03286 2.30151 5.37943 2.04374 5.80311 2.00689C6.01495 2.20942 6.3231 2.33823 6.65048 2.33823H11.3301C11.6575 2.33823 11.9464 2.20929 12.1775 2.00689C12.6012 2.04375 12.9671 2.31987 13.0826 2.70657L14.1995 6.22323H3.80023Z" fill="#FD254C"/>
</svg>
