<svg width="200" height="29" viewBox="0 0 200 29" fill="none" xmlns="http://www.w3.org/2000/svg">
<path d="M12.5012 0.970873C14.9001 0.970873 16.9898 1.38511 18.7704 2.21359C20.551 3.04207 21.9235 4.23301 22.888 5.78641C23.8525 7.3398 24.3348 9.1521 24.3348 11.2233C24.3348 13.2945 23.8525 15.1068 22.888 16.6602C21.9235 18.2136 20.551 19.4045 18.7704 20.233C16.9898 21.0615 14.9001 21.4757 12.5012 21.4757H8.75458V28.1553H0V0.970873H12.5012ZM11.9448 14.4078C13.1319 14.4078 14.0222 14.1359 14.6157 13.5922C15.2092 13.0227 15.506 12.233 15.506 11.2233C15.506 10.2136 15.2092 9.43689 14.6157 8.8932C14.0222 8.32362 13.1319 8.03883 11.9448 8.03883H8.75458V14.4078H11.9448Z" fill="white"/>
<path d="M27.2059 0.970873H35.9605V21.0485H47.6827V28.1553H27.2059V0.970873Z" fill="white"/>
<path d="M58.8554 7.88349V12.5437H69.6874V19.4563H58.8554V28.1553H50.1009V0.970873H71.2083V7.88349H58.8554Z" fill="white"/>
<path d="M83.9859 28.1165C81.9333 28.1165 79.9425 27.8317 78.0135 27.2621C76.1093 26.6667 74.576 25.9029 73.4137 24.9709L75.4539 20.233C76.5668 21.0874 77.8899 21.7735 79.4232 22.2913C80.9565 22.8091 82.4898 23.068 84.023 23.068C85.7294 23.068 86.9907 22.8091 87.8068 22.2913C88.6229 21.7476 89.031 21.0356 89.031 20.1553C89.031 19.5081 88.7837 18.9773 88.289 18.5631C87.8192 18.123 87.2009 17.7735 86.4343 17.5146C85.6924 17.2557 84.6784 16.9709 83.3924 16.6602C81.414 16.1683 79.7941 15.6764 78.5329 15.1845C77.2716 14.6926 76.1835 13.9029 75.2685 12.8155C74.3782 11.7282 73.933 10.2783 73.933 8.46602C73.933 6.88673 74.3411 5.46278 75.1572 4.19417C75.9733 2.89968 77.1974 1.87702 78.8296 1.12621C80.4866 0.375404 82.5021 0 84.8762 0C86.5332 0 88.153 0.207119 89.7358 0.621358C91.3185 1.0356 92.7034 1.63107 93.8905 2.40777L92.0357 7.18446C89.6368 5.76052 87.238 5.04854 84.8391 5.04854C83.1575 5.04854 81.9086 5.33333 81.0925 5.90291C80.3011 6.47249 79.9054 7.2233 79.9054 8.15534C79.9054 9.08738 80.3629 9.78641 81.278 10.2524C82.2177 10.6926 83.6397 11.1327 85.544 11.5728C87.5224 12.0647 89.1422 12.5566 90.4035 13.0485C91.6647 13.5405 92.7405 14.3172 93.6308 15.3786C94.5458 16.4401 95.0034 17.877 95.0034 19.6893C95.0034 21.2427 94.5829 22.6667 93.7421 23.9612C92.926 25.2298 91.6895 26.2395 90.0325 26.9903C88.3756 27.7411 86.3601 28.1165 83.9859 28.1165Z" fill="#F8A162"/>
<path d="M104.126 5.59223H95.8168V0.466018H118.445V5.59223H110.136V27.6505H104.126V5.59223Z" fill="#F8A162"/>
<path d="M138.331 27.4955C139.322 27.1997 140.266 26.7983 141.163 26.2913C143.314 25.0744 145.008 23.4045 146.245 21.2815C147.481 19.1327 148.099 16.7249 148.099 14.0583C148.099 11.3916 147.481 8.99676 146.245 6.87379C145.008 4.72492 143.314 3.04207 141.163 1.82524C139.011 0.608414 136.587 0 133.892 0C131.196 0 128.76 0.608414 126.584 1.82524C124.432 3.04207 122.738 4.72492 121.502 6.87379C120.29 8.99676 119.684 11.3916 119.684 14.0583C119.684 16.7249 120.29 19.1327 121.502 21.2815C122.738 23.4045 124.432 25.0744 126.584 26.2913C127.374 26.7331 128.199 27.0947 129.057 27.3761V21.2087C128.137 20.5132 127.387 19.6314 126.807 18.5631C126.114 17.2427 125.768 15.7411 125.768 14.0583C125.768 12.3754 126.114 10.8738 126.807 9.5534C127.524 8.23301 128.501 7.21035 129.737 6.48544C130.974 5.73463 132.358 5.35922 133.892 5.35922C135.425 5.35922 136.81 5.73463 138.046 6.48544C139.283 7.21035 140.247 8.23301 140.94 9.5534C141.657 10.8738 142.016 12.3754 142.016 14.0583C142.016 15.7411 141.657 17.2427 140.94 18.5631C140.302 19.7804 139.432 20.7557 138.331 21.4889V27.4955Z" fill="#F8A162"/>
<path fill-rule="evenodd" clip-rule="evenodd" d="M169.16 27.6505L164.153 20.0777H158.625V27.6505H152.616V0.466018H163.856C166.156 0.466018 168.147 0.867313 169.828 1.6699C171.535 2.47249 172.845 3.61165 173.76 5.08738C174.675 6.56311 175.133 8.31068 175.133 10.3301C175.133 12.3495 174.663 14.0971 173.723 15.5728C172.808 17.0227 171.498 18.1359 169.791 18.9126L175.615 27.6505H169.16ZM169.049 10.3301C169.049 8.80259 168.579 7.63754 167.64 6.83495C166.7 6.00647 165.327 5.59223 163.522 5.59223H158.625V15.068H163.522C165.327 15.068 166.7 14.6537 167.64 13.8252C168.579 12.9968 169.049 11.8317 169.049 10.3301Z" fill="#F8A162"/>
<path d="M200 27.6505V22.6019H185.867V16.3107H197.923V11.4175H185.867V5.51456H199.518V0.466018H179.894V27.6505H200Z" fill="#F8A162"/>
<path d="M136.476 17.4761C137.603 16.5905 138.331 15.1804 138.331 13.5922C138.331 10.9112 136.255 8.73786 133.694 8.73786C131.133 8.73786 129.057 10.9112 129.057 13.5922C129.057 15.1804 129.786 16.5905 130.912 17.4761L131.839 28.1553H135.549L136.476 17.4761Z" fill="#F8A162"/>
</svg>
