<svg width="36" height="39" viewBox="0 0 36 39" fill="none" xmlns="http://www.w3.org/2000/svg">
<path d="M13.1028 18.1898C13.4846 17.6264 13.9702 17.1409 14.5336 16.759L9.8414 5.42953C6.33245 7.15078 3.49453 9.9887 1.77328 13.4977L13.1028 18.1898Z" fill="#C41192"/>
<path d="M34.0842 26.8832C35.3573 23.1848 35.3573 19.1668 34.0842 15.4684L22.7547 20.1606C22.8839 20.8304 22.8839 21.5187 22.7547 22.1886L34.0842 26.8832Z" fill="#C41192"/>
<path d="M20.5055 16.759C21.0689 17.1409 21.5545 17.6264 21.9363 18.1898L33.2658 13.4977C31.5445 9.9887 28.7066 7.15078 25.1977 5.42953L20.5055 16.759Z" fill="#C41192"/>
<path d="M14.5336 25.5925C13.9702 25.2107 13.4846 24.7251 13.1028 24.1617L1.77328 28.8539C3.49453 32.3629 6.33245 35.2008 9.8414 36.922L14.5336 25.5925Z" fill="#C41192"/>
<path d="M12.2844 22.1898C12.1552 21.52 12.1552 20.8316 12.2844 20.1618L0.954888 15.4696C-0.318296 19.168 -0.318296 23.186 0.954888 26.8844L12.2844 22.1898Z" fill="#C41192"/>
<path d="M21.9363 24.1617C21.5545 24.7251 21.0689 25.2107 20.5055 25.5925L25.1977 36.922C28.7066 35.2008 31.5445 32.3629 33.2658 28.8539L21.9363 24.1617Z" fill="#C41192"/>
<path d="M18.5335 26.4109C17.8637 26.5401 17.1754 26.5401 16.5055 26.4109L11.8133 37.7404C15.5118 39.0136 19.5297 39.0136 23.2282 37.7404L18.5335 26.4109Z" fill="#C41192"/>
<path d="M17.5195 17.9766C16.8868 17.9766 16.2682 18.1642 15.7421 18.5157C15.216 18.8673 14.806 19.3669 14.5638 19.9515C14.3217 20.5361 14.2583 21.1793 14.3818 21.7999C14.5052 22.4205 14.8099 22.9906 15.2573 23.438C15.7048 23.8854 16.2748 24.1901 16.8954 24.3135C17.516 24.437 18.1592 24.3736 18.7438 24.1315C19.3284 23.8893 19.828 23.4793 20.1796 22.9532C20.5311 22.4271 20.7187 21.8085 20.7187 21.1758C20.7178 20.3276 20.3804 19.5144 19.7806 18.9147C19.1809 18.3149 18.3677 17.9775 17.5195 17.9766ZM17.5195 22.2422C17.3086 22.2422 17.1024 22.1796 16.9271 22.0625C16.7517 21.9453 16.615 21.7787 16.5343 21.5839C16.4536 21.389 16.4325 21.1746 16.4736 20.9677C16.5148 20.7609 16.6163 20.5709 16.7655 20.4217C16.9146 20.2726 17.1046 20.171 17.3115 20.1299C17.5183 20.0887 17.7328 20.1098 17.9276 20.1905C18.1225 20.2713 18.289 20.4079 18.4062 20.5833C18.5234 20.7587 18.5859 20.9649 18.5859 21.1758C18.5858 21.4586 18.4734 21.7297 18.2734 21.9297C18.0735 22.1296 17.8023 22.242 17.5195 22.2422Z" fill="#C41192"/>
<path d="M14.5549 1.47652L16.5354 6.22964C16.6162 6.42407 16.7528 6.5902 16.928 6.70707C17.1031 6.82394 17.309 6.8863 17.5195 6.8863C17.7301 6.8863 17.9359 6.82394 18.1111 6.70707C18.2862 6.5902 18.4228 6.42407 18.5037 6.22964L20.4841 1.47652C20.5518 1.31449 20.5784 1.13825 20.5615 0.963475C20.5447 0.788697 20.4849 0.620792 20.3875 0.474684C20.2901 0.328575 20.1581 0.208791 20.0033 0.125979C19.8485 0.0431666 19.6756 -0.000108632 19.5 2.04785e-07H15.5391C15.3635 -0.000108632 15.1906 0.0431666 15.0357 0.125979C14.8809 0.208791 14.7489 0.328575 14.6515 0.474684C14.5542 0.620792 14.4944 0.788697 14.4775 0.963475C14.4607 1.13825 14.4873 1.31449 14.5549 1.47652Z" fill="#C41192"/>
<path d="M21.6785 4.15533L20.4726 7.04986C20.2296 7.63282 19.8195 8.13084 19.294 8.48114C18.7685 8.83145 18.1511 9.01838 17.5195 9.01838C16.888 9.01838 16.2705 8.83145 15.745 8.48114C15.2195 8.13084 14.8095 7.63282 14.5665 7.04986L13.3605 4.15533C12.8349 4.28411 12.3187 4.43605 11.8121 4.61114L16.5043 15.9406C17.1741 15.8115 17.8625 15.8115 18.5323 15.9406L23.2245 4.61114C22.7195 4.43645 22.2042 4.28452 21.6785 4.15533Z" fill="#C41192"/>
</svg>
