<svg width="36" height="39" viewBox="0 0 36 39" fill="none" xmlns="http://www.w3.org/2000/svg">
<path d="M18.0001 20.23C23.3145 20.23 27.6373 14.6891 27.6373 9.46848C27.6373 4.2482 23.3146 0 18.0001 0C12.6855 0 8.36206 4.24813 8.36206 9.46848C8.36298 14.6885 12.6857 20.23 18.0001 20.23Z" fill="#64399A"/>
<path d="M25.2349 20.3268C23.3654 21.726 21.0334 22.5585 18.5073 22.5585H17.4926C14.9659 22.5585 12.6333 21.7257 10.7644 20.3268C4.66084 21.2961 0 26.4937 0 32.7628C0 36.207 8.05873 39 18 39C27.9413 39 36 36.207 36 32.7628C36 26.4933 31.3385 21.2956 25.2348 20.3268H25.2349Z" fill="#64399A"/>
</svg>
