<svg width="42" height="30" viewBox="0 0 42 30" fill="none" xmlns="http://www.w3.org/2000/svg">
<path d="M3.87592 22.2531H27.1179C29.2586 22.2531 30.9938 24.3912 30.9938 26.1243V26.1288C30.9938 28.2669 29.2586 30 27.1179 30H3.87592C1.73521 30 0 27.8619 0 26.1288V26.1243C0 23.9862 1.73521 22.2531 3.87592 22.2531Z" fill="#FD254C"/>
<path d="M38.2541 0.00234208H15.0171C13.965 -0.0341846 12.9433 0.357823 12.1864 1.08804C11.4292 1.81857 11.0017 2.8247 11.0017 3.87584C11.0017 4.9273 11.4292 5.93343 12.1864 6.66397C12.9433 7.39418 13.965 7.78615 15.0171 7.74966H38.2541C39.6075 7.7027 40.8386 6.95424 41.5024 5.77497C42.1659 4.59568 42.1659 3.15649 41.5024 1.9772C40.8385 0.797913 39.6075 0.0494301 38.2541 0.00250897V0.00234208Z" fill="#FD254C"/>
<path d="M32.6835 11.1298H9.4465C8.06172 11.1298 6.78234 11.8675 6.08978 13.0654C5.39753 14.2633 5.39753 15.7388 6.08978 16.9366C6.78235 18.1345 8.06172 18.8722 9.4465 18.8722H32.6835C34.0683 18.8722 35.3476 18.1345 36.0402 16.9366C36.7324 15.7387 36.7324 14.2633 36.0402 13.0654C35.3476 11.8675 34.0683 11.1298 32.6835 11.1298Z" fill="#FD254C"/>
</svg>
